<?xml version="1.0" encoding="utf-8"?>
<!-- Generator: Adobe Illustrator 26.0.1, SVG Export Plug-In . SVG Version: 6.00 Build 0)  -->
<svg version="1.1" id="Layer_1" xmlns="http://www.w3.org/2000/svg" xmlns:xlink="http://www.w3.org/1999/xlink" x="0px" y="0px"
	 viewBox="0 0 150 40" style="enable-background:new 0 0 150 40;" xml:space="preserve">
<style type="text/css">
	.st0{fill:#09153A;}
	.st1{fill:#B11F24;}
</style>
<path class="st0" d="M86.3,24.2c0,0-1.1-2.4-3.7-0.8l-3.5,0.5l3.6,0.4c0,0,1.3-1.7,2.8-0.5l-1.7,0.1l-1,1.3l1.2,1.6h1.6
	c0,0-1.5,1.2-2.6-0.4l-8.5,0l8.2,0.7c0,0,2.2,1.8,3.7-0.7h-2l-0.6-1.1l0.5-0.9L86.3,24.2z"/>
<path class="st1" d="M50.9,27.8c0.4-0.2,0.7-0.4,1.1-0.5c0.1-0.1,0.2-0.1,0.3-0.3c0.1-0.1,0.1-0.2,0-0.3c-0.1-0.2-0.2-0.5-0.3-0.7
	c0,0,0-0.1,0-0.1c0.2-0.2,0.4-0.4,0.6-0.7c0.2,0.2,0.5,0.3,0.7,0.5c0,0,0.1,0,0.1,0c0.2-0.1,0.4-0.3,0.6-0.4c0,0,0,0,0-0.1
	c0-0.3,0-0.6,0-0.9c0,0,0-0.1,0-0.1c0.2-0.1,0.5-0.1,0.7-0.2c0,0,0.1,0,0.1,0c0.1,0.3,0.3,0.5,0.4,0.8c0,0,0,0.1,0.1,0.1
	c0.2,0,0.4,0,0.7,0c0,0,0.1,0,0.1,0c0.1-0.3,0.3-0.5,0.4-0.8c0,0,0-0.1,0.1,0c0.2,0.1,0.5,0.2,0.7,0.2c0.1,0,0.1,0,0.1,0.1
	c0,0.3,0,0.6,0,0.9c0,0,0,0.1,0,0.1c0.2,0.1,0.4,0.3,0.6,0.4c0,0,0.1,0,0.1,0c0.2-0.1,0.5-0.3,0.7-0.4c0,0,0.1,0,0.1,0
	c0.2,0.2,0.4,0.4,0.5,0.6c0,0,0,0.1,0,0.1c-0.1,0.3-0.3,0.5-0.4,0.8c0,0,0,0.1,0,0.1c0.1,0.1,0.1,0.2,0.2,0.3c0,0,0,0,0.1,0.1
	c0.4,0.2,0.8,0.4,1.2,0.6c0,0,0,0,0,0c-0.1,0-0.3,0-0.4,0c-0.1,0-0.2,0-0.2-0.1c0,0,0,0-0.1,0c-0.1,0-0.2,0-0.3-0.1
	c-0.2-0.2-0.5-0.5-0.7-0.7c-0.1-0.1-0.1-0.1-0.2-0.2c-0.1-0.1-0.2-0.1-0.3-0.2c-0.6-0.7-1.3-1.1-2.1-1.2c-1.3-0.2-2.4,0.3-3.3,1.4
	c-0.1,0.1-0.1,0.2-0.2,0.3c0,0.1-0.1,0.1-0.1,0.2c-0.2,0.2-0.3,0.4-0.5,0.5c0,0-0.1,0-0.1,0C51.6,27.8,51.3,27.8,50.9,27.8
	C51,27.8,51,27.8,50.9,27.8C50.9,27.8,50.9,27.8,50.9,27.8"/>
<path class="st1" d="M98.6,24.5c0.8-2.1,1.4-4.3,1.4-6.6c0-4.5-1.9-8-5.7-10.5C94.2,7.2,94,7.2,93.8,7c0.6-0.5,1.1-0.9,1.7-1.4
	c0.6-0.5,1.2-1,1.9-1.5c0.2-0.2,0.3-0.1,0.5,0c4.3,2.7,7,6.6,8,11.6c0.8,4.1,0.2,8.2-1.2,12.1"/>
<path class="st1" d="M59.8,17.3c3.7,0.9,7.2,2.5,10.7,3.9c-0.8-0.2-1.7-0.4-2.5-0.6c-3.5-0.8-7.1-1.5-10.7-1.9
	c-2.3-0.2-4.6-0.4-6.9-0.2c-0.4,0-0.9,0.1-1.3,0.2c-0.9,0.2-1.8,0.2-2.7,0.1c-1.2-0.2-2.5-0.2-3.7-0.4c0.8,0,1.6,0,2.4,0
	c0.8,0,1.6,0,2.4,0c0.1,0,0.3-0.1,0.4-0.2c0.3-0.7,0.7-1.2,1.4-1.7c-1.7-0.1-3.5-0.3-5.2-0.4c0,0,0,0,0-0.1c0.6,0,1.1,0,1.7,0
	c1.9,0,3.8,0,5.7,0c1.1,0,2.1,0.2,3.2,0.3c0.1,0,0.3,0.1,0.4,0c1.1-0.3,2.2-0.6,3.3-1c-3.2-0.2-6.4-0.4-9.6-0.6c0,0,0,0,0-0.1
	c0.2,0,0.5,0,0.7,0c3.9,0,7.7,0,11.6,0c0.6,0,1.1-0.1,1.7-0.3c-2.3-0.2-4.6-0.3-6.9-0.5c0,0,0,0,0-0.1c0.9,0,1.8,0,2.8,0
	c3.5,0,7,0,10.5,0c2.4,0,4.7,0.4,6.8,1.8c0.9,0.6,1.9,1.1,2.8,1.6c0.8,0.5,1.6,0.9,2.3,1.4c0.4,0.3,0.8,0.3,1.2,0.3
	c2-0.1,3.9-0.1,5.9,0.3c2.3,0.5,4.3,1.5,6.2,2.8c1,0.7,1.3,1.8,1.3,2.9c0,0.9-0.1,1.8-0.2,2.7c-0.1-0.8-0.2-1.5-0.3-2.3
	c0-0.1,0-0.2-0.1-0.3c-0.2-0.9-0.6-1.5-1.4-2c-2.1-1.3-4.4-2.1-6.9-2.3c-2-0.2-4-0.1-6-0.2c-0.4,0-0.8-0.1-1.1-0.4
	c-1.9-1.6-3.8-3.1-6.1-4.2c-1.2-0.6-2.4-0.8-3.8-0.8c-3.3,0.1-6.5,0.6-9.6,1.6C60.1,17.2,59.9,17.2,59.8,17.3"/>
<path class="st1" d="M58.1,13.2c0.8-0.7,1.4-1.4,2.2-2c5.2-4.6,11.1-7.8,17.9-9.4c3.4-0.8,6.9-1.1,10.5-0.7c2.3,0.2,4.6,0.8,6.7,1.7
	c0.1,0.1,0.2,0.1,0.4,0.2c0,0,0,0,0.1,0.1c-1.4,0.9-2.7,1.8-4.1,2.7c-0.1,0.1-0.3,0-0.4,0c-3.4-1.3-7-1.7-10.6-1.5
	c-7.3,0.5-13.8,3.1-19.5,7.6c-0.3,0.3-0.7,0.5-1,0.8C59.6,13.3,59,13.4,58.1,13.2"/>
<path class="st0" d="M87.5,11.2c-2.5,2-4.9,4-7.4,6c-0.7-0.4-1.3-0.9-2.1-1.3c6.4-4.3,12.8-8.5,19.2-12.7c0,0,0.1,0.1,0.1,0.1
	c-2.2,1.8-4.3,3.5-6.5,5.3c3.3,1.8,5.5,4.3,6.2,8c0.5,2.4,0.1,4.7-0.7,7.1c-0.1-0.1-0.2-0.1-0.2-0.1c-0.5-1.3-1.4-2.2-2.5-2.9
	c-0.5-0.3-1.1-0.6-1.6-0.9c-0.5-0.2-0.6-0.5-0.6-0.9c0.2-1.5-0.1-3-0.8-4.3C89.9,13,88.8,12,87.5,11.2"/>
<path class="st0" d="M78.4,11.5c0.4-1.2,0.7-2.3,1.1-3.5c0.2-0.5,0.3-1,0.5-1.5c0-0.1,0.2-0.2,0.3-0.2c2.9-0.1,5.8,0.3,8.6,1.4
	c-0.1,0.1-0.2,0.2-0.3,0.3c-1,0.7-2.1,1.4-3.1,2C85.3,10,85,10.1,84.8,10c-1.4-0.2-2.7-0.5-4.1-0.7c-0.2,0-0.4,0.1-0.6,0.2
	C79.6,10.2,79.1,10.9,78.4,11.5C78.5,11.5,78.5,11.5,78.4,11.5"/>
<path class="st0" d="M72.4,11.6c-0.2-1.3-0.4-2.5-0.6-3.8c2.5-0.8,5-1.3,7.6-1.4c-0.3,0.9-0.6,1.8-0.9,2.7c-0.1,0.3-0.2,0.2-0.4,0.3
	c-1.6,0.2-3.2,0.5-4.8,0.7c-0.3,0-0.4,0.2-0.4,0.4C72.7,10.8,72.6,11.2,72.4,11.6C72.4,11.6,72.4,11.6,72.4,11.6"/>
<path class="st0" d="M71,8c0.1,0.8,0.3,1.6,0.4,2.5c-0.5,0.2-1.1,0.3-1.6,0.5c-0.7,0.3-1.5,0.6-2.2,0.9c-0.4,0.1-0.5,0.3-0.4,0.7
	c0,0.1,0,0.2,0,0.5c-0.5-0.9-1-1.8-1.5-2.6C67.4,9.4,69.2,8.6,71,8"/>
<path class="st0" d="M47.4,23.9c0-0.6,0.1-1.2,0.1-1.8c-1.9-0.2-3.9-0.4-5.8-0.6c0,0,0,0,0,0c0.7,0,1.3,0,2,0c1.3,0,2.6,0,3.9,0
	c0.2,0,0.5,0,0.7,0.1c0.5,0.2,0.6,0.4,0.4,0.9c-0.5,1.6-0.5,3.3,0,4.9c0,0.1,0.1,0.3,0.1,0.5c-0.2-0.3-0.4-0.6-0.5-0.9
	c-0.1-0.3-0.3-0.5-0.6-0.5c-0.8-0.2-1.5-0.4-2.2-0.7c0.8,0.1,1.6,0.1,2.4,0.2c-0.1-0.5-0.2-0.9-0.3-1.4c0-0.1-0.3-0.2-0.4-0.2
	c-1.4-0.3-2.9-0.5-4.3-0.7c0,0-0.1,0-0.1-0.1C44.2,23.7,45.8,23.8,47.4,23.9"/>
<path class="st0" d="M48.1,20.8c0.5,0.1,0.9,0.2,1.3,0.3c0.1,0,0.3,0.1,0.4,0c0.9-0.4,1.8-0.9,2.7-1.3c-1.4-0.3-2.8-0.2-4.2,0.1
	c1.3-0.7,2.7-1,4.2-0.8c0.2,0,0.5,0.1,0.7,0.1c0.3,0.1,0.6,0.2,0.6,0.6c0,0.4-0.2,0.8-0.6,0.9c-1.1,0.4-2.2,0.7-3.4,1
	c-0.3,0.1-0.7,0.1-0.9-0.2C48.7,21.2,48.4,21.1,48.1,20.8"/>
<path class="st0" d="M65,10.7c0.4,0.7,0.7,1.2,1.1,1.8c-0.8,0.5-1.6,0.9-2.5,0.8c-0.6-0.1-1.3,0-1.9,0c0,0,0-0.1-0.1-0.1
	C62.7,12.4,63.8,11.6,65,10.7"/>
<path class="st0" d="M92.5,25.6c-0.5-0.4-1-0.9-1.6-1.4c0,0.4-0.1,0.7-0.1,1c-0.2-1-0.8-1.6-1.5-2.2c1.8,0.1,4.1,1.9,4.5,3.4
	c-1.1-0.1-2.2-0.2-3.2-0.3C90.7,25.9,90.7,25.9,92.5,25.6"/>
<g>
</g>
<path class="st0" d="M74.4,35.6c0,0-0.1,0.1-0.1,0"/>
<path class="st0" d="M77.2,28.1"/>
<path class="st0" d="M76.2,28.1"/>
<path class="st0" d="M76,28.1"/>
<path class="st0" d="M60.9,31.5c0,2.4-1.7,3.5-5,3.5c-3.3,0-5-1.1-5-3.5c0-2.4,1.7-3.5,5-3.5C59.2,28,60.9,29,60.9,31.5 M58.8,31.5
	c0-1.5-0.8-1.7-2.9-1.7s-2.9,0.3-2.9,1.7c0,1.5,0.8,1.7,2.9,1.7S58.8,32.9,58.8,31.5"/>
<polygon class="st0" points="70.4,28.1 69,29.8 66.6,29.8 66.6,34.9 64.5,34.9 64.5,29.8 61.3,29.8 62.7,28.1 "/>
<polygon class="st0" points="89.1,34.9 87,34.9 87,32.2 82.9,32.2 82.9,34.9 80.8,34.9 80.8,28.1 82.9,28.1 82.9,30.5 87,30.5 
	87,28.1 89.1,28.1 "/>
<path class="st0" d="M93.2,34.9l1.3-1.7h1.7c0.4,0,0.9,0,1.2,0c-0.2-0.2-0.5-0.7-0.7-1l-1.2-1.8l-3.2,4.5h-2.5l4.3-6.1
	c0.3-0.4,0.7-0.8,1.4-0.8c0.6,0,1,0.3,1.3,0.8l4.2,6.1H93.2z"/>
<polygon class="st0" points="110.3,28.1 108.9,29.8 106.5,29.8 106.5,34.9 104.4,34.9 104.4,29.8 101.2,29.8 102.6,28.1 "/>
<path class="st0" d="M70.2,33.4c0,0-0.1-0.1-0.1-0.1c-0.2,0-0.2,0-0.3-0.1c0-0.1-0.1-0.2-0.1-0.2c0-0.1,0-0.1,0.1-0.1c0,0,0,0,0,0
	c0-0.1,0-0.1-0.1-0.2c0,0-0.1,0-0.1,0c-0.1,0-0.1,0-0.1-0.1c0-0.1-0.1-0.2-0.1-0.3c0-0.1,0-0.1,0.1-0.1c0,0,0.1,0,0.1-0.1
	c0,0,0-0.1,0-0.1c0,0-0.1,0-0.1,0c-0.1,0-0.1,0-0.1-0.1c0-0.1,0-0.2,0-0.4c0-0.1,0.1-0.1,0.2-0.1c0,0,0-0.1,0-0.1c0,0,0,0-0.1,0
	c-0.1,0-0.1-0.1-0.1-0.1c0-0.1,0-0.2,0.1-0.3c0-0.1,0-0.1,0.2-0.1c0-0.1,0-0.1,0.1-0.2c0,0-0.1,0-0.1,0c-0.1,0-0.1-0.1-0.1-0.1
	c0.1-0.1,0.1-0.2,0.2-0.3c0-0.1,0.1-0.1,0.2,0c0-0.1,0.1-0.1,0.1-0.2c-0.2-0.1-0.2-0.1,0-0.2c0.1-0.1,0.1-0.1,0.2-0.2
	c0.1-0.1,0.1-0.1,0.3,0c0,0,0.1,0,0.1-0.1c0,0,0.1,0,0.1-0.1c0,0-0.1,0-0.1,0c-0.1,0-0.1-0.1,0-0.1c0.1-0.1,0.2-0.2,0.3-0.3
	c0.1-0.1,0.1,0,0.2,0c0.1,0,0.1-0.1,0.2-0.1c-0.1-0.1-0.1-0.1,0.1-0.2c0.1,0,0.2-0.1,0.2-0.1c0.2-0.1,0.2-0.1,0.3,0c0,0,0.1,0,0.1,0
	c0,0,0.1,0,0.1,0c-0.1-0.1-0.1-0.1,0.1-0.2c0.1,0,0.2-0.1,0.3-0.1c0.2-0.1,0.2-0.1,0.3,0.1c0.1,0,0.1,0,0.2-0.1c0-0.1,0-0.1,0.1-0.2
	c0.1,0,0.2,0,0.3-0.1c0.2,0,0.2,0,0.3,0.1c0.1,0,0.1,0,0.2,0c0,0,0,0,0,0c0-0.1,0-0.1,0.2-0.1c0.1,0,0.2,0,0.3,0
	c0.2,0,0.2,0,0.2,0.1c0.1,0,0.1,0,0.2,0c0,0,0,0,0-0.1c0-0.1,0-0.1,0.1-0.1c0.1,0,0.2,0,0.4,0c0.2,0,0.2,0,0.2,0.2c0,0,0.1,0,0.1,0
	c0,0,0.1,0,0.1,0c0.1-0.1,0.1-0.1,0.2-0.1c0.1,0,0.2,0,0.4,0.1c0,0,0.1,0.1,0.1,0.1c0,0.1,0,0.1,0.1,0.1c0,0,0.1,0,0.1,0
	C76.8,28,76.8,28,77,28c0.1,0,0.2,0.1,0.3,0.1c0.2,0.1,0.2,0.1,0.1,0.2c0.1,0,0.1,0.1,0.2,0.1c0,0,0,0,0.1,0c0,0,0.1,0,0.1,0
	c0.1,0.1,0.3,0.1,0.4,0.2c0.1,0,0,0.1,0,0.1c0.1,0,0.1,0.1,0.2,0.1c0.1-0.1,0.1-0.1,0.3,0c0.1,0,0.1,0.1,0.2,0.1
	c0.1,0.1,0.1,0.1,0,0.2c0,0,0.1,0.1,0.1,0.1c0,0,0,0,0.1,0c0,0,0.1,0,0.1,0c0.1,0.1,0.2,0.2,0.3,0.3c0,0,0,0.1,0,0.1c0,0,0,0-0.1,0
	c0,0.1,0.1,0.1,0.1,0.1c0.2,0,0.2,0,0.2,0.1c0,0.1,0.1,0.1,0.1,0.2c0.1,0.1,0.1,0.1-0.1,0.2c0,0,0,0,0,0.1c0,0,0,0.1,0,0.1
	c0.2,0,0.2,0,0.2,0.1c0,0.1,0,0.1,0.1,0.2c0,0.1,0,0.1-0.1,0.2c0,0,0,0.1,0,0.2c0,0,0.1,0,0.1,0c0,0,0.1,0,0.1,0.1
	c0,0.1,0,0.2,0,0.3c0,0.1,0,0.1-0.1,0.1c0,0,0,0.1,0,0.2c0,0,0.1,0,0.1,0c0,0,0.1,0,0.1,0.1c0,0.1,0,0.2,0,0.3c0,0.1,0,0.1-0.2,0.1
	c0,0,0,0.1,0,0.1c0,0,0,0,0,0c0.1,0,0.1,0.1,0.1,0.1c0,0.1,0,0.1-0.1,0.2c0,0.1,0,0.1-0.2,0.1c0,0,0,0.1-0.1,0.1c0,0,0,0,0.1,0
	c0,0,0.1,0,0,0.1c-0.1,0.1-0.1,0.2-0.2,0.3c0,0.1-0.1,0-0.2,0c0,0-0.1,0.1-0.1,0.1c0,0,0,0,0.1,0c0,0,0.1,0.1,0,0.1
	c-0.1,0.1-0.2,0.2-0.2,0.3c-0.1,0.1-0.1,0-0.2,0c0,0-0.1,0.1-0.1,0.1c0,0,0,0,0.1,0c0,0,0,0.1,0,0.1c-0.1,0.1-0.2,0.2-0.3,0.2
	c-0.1,0.1-0.1,0-0.2,0c0,0-0.1,0.1-0.1,0.1c0.1,0.1,0.1,0.1-0.1,0.2c-0.1,0-0.1,0.1-0.2,0.1c-0.1,0.1-0.1,0.1-0.2,0c0,0-0.1,0-0.1,0
	c0,0-0.1,0-0.1,0c0.1,0.1,0.1,0.1-0.1,0.2c-0.1,0-0.2,0.1-0.2,0.1c-0.1,0.1-0.1,0.1-0.2,0c-0.1,0-0.1,0-0.2,0.1c0,0.1,0,0.1-0.1,0.2
	c-0.1,0-0.2,0-0.3,0.1c-0.2,0-0.2,0-0.2-0.1c0,0-0.1,0-0.1,0c0,0-0.1,0-0.1,0c0,0,0,0,0,0c0,0.1,0,0.1-0.2,0.1c-0.1,0-0.2,0-0.3,0
	c-0.2,0-0.2,0-0.2-0.1c-0.1,0-0.1,0-0.2,0c0,0,0,0,0,0.1c0,0.1,0,0.1-0.1,0.1c-0.1,0-0.2,0-0.4,0c-0.2,0-0.2,0-0.2-0.1
	c-0.1,0-0.1,0-0.2,0c-0.1,0.1-0.1,0.1-0.2,0.1c-0.1,0-0.2,0-0.3,0c-0.2,0-0.2,0-0.2-0.1c-0.1,0-0.1,0-0.2,0
	c-0.1,0.1-0.1,0.1-0.3,0.1c-0.1,0-0.2,0-0.3-0.1c-0.2,0-0.2,0-0.1-0.2c-0.1,0-0.1,0-0.2-0.1c0,0,0,0-0.1,0c0,0-0.1,0.1-0.1,0
	c-0.1-0.1-0.3-0.1-0.4-0.2c-0.1,0-0.1,0,0-0.1c-0.1,0-0.1-0.1-0.2-0.1c-0.1,0.1-0.1,0.1-0.3,0c-0.1,0-0.1-0.1-0.2-0.1
	c-0.1-0.1-0.1-0.1,0-0.2c-0.1,0-0.1-0.1-0.2-0.1c0,0,0,0-0.1,0c-0.1,0-0.1,0-0.2,0c-0.1-0.1-0.2-0.2-0.3-0.2c-0.1-0.1-0.1-0.1,0-0.1
	c0,0,0,0,0,0c0,0-0.1-0.1-0.1-0.1c-0.2,0-0.2,0-0.3-0.1c0-0.1-0.1-0.1-0.1-0.2C70,33.5,70,33.5,70.2,33.4 M75.2,29
	c-2.1-0.1-3.9,1.1-4,2.7c0,1.6,1.7,2.8,3.7,2.8c2,0,3.6-1.2,3.7-2.6C78.7,30.4,77.2,29.1,75.2,29"/>
<path class="st0" d="M75,34.3c-1.9,0-3.5-1.1-3.5-2.6c0-1.5,1.7-2.7,3.8-2.6c1.9,0.1,3.3,1.3,3.2,2.7C78.3,33.2,76.8,34.3,75,34.3
	 M78.1,31.8c0.1-1.3-1.2-2.4-2.9-2.5c-1.8-0.1-3.4,0.9-3.4,2.3c0,1.3,1.4,2.4,3.2,2.4C76.7,34.1,78,33.1,78.1,31.8"/>
<path class="st0" d="M73.8,31.4c-0.2-0.2-0.4-0.3-0.6-0.5c-0.2-0.2-0.4-0.3-0.6-0.5c0.1-0.1,0.1-0.1,0.2-0.2c0.5,0.4,1,0.8,1.4,1.1
	c0.1-0.1,0.2-0.1,0.3-0.2c-0.5-0.4-0.9-0.7-1.4-1.1c0.1-0.1,0.2-0.1,0.3-0.2c0.4,0.3,0.8,0.7,1.2,1c0-0.5,0-0.9,0.1-1.3
	c0.1,0,0.2,0,0.3,0c0,0.5,0,1-0.1,1.5c0.1,0,0.2,0,0.3,0c0-0.5,0-1,0.1-1.5c0.1,0,0.2,0,0.3,0c0,0.4,0,0.9-0.1,1.3
	c0.4-0.3,0.8-0.6,1.3-0.9c0.1,0.1,0.2,0.1,0.3,0.2c-0.5,0.3-1,0.7-1.4,1c0.1,0.1,0.2,0.1,0.2,0.2c0.5-0.3,0.9-0.7,1.4-1
	c0.1,0.1,0.1,0.1,0.2,0.2c-0.4,0.3-0.8,0.6-1.2,0.9c0,0,0,0,0,0c0.6,0,1.1,0,1.7,0c0,0.1,0,0.2,0,0.2c-0.6,0-1.3,0-1.9,0
	c0,0.1,0,0.2,0,0.3c0.6,0,1.3,0,1.9,0c0,0.1,0,0.2,0,0.2c-0.5,0-1.1,0-1.7,0c0.4,0.3,0.8,0.6,1.1,0.9c-0.1,0.1-0.1,0.1-0.2,0.2
	c-0.4-0.3-0.9-0.7-1.3-1c-0.1,0.1-0.2,0.1-0.2,0.2c0.4,0.3,0.9,0.7,1.3,1c-0.1,0.1-0.2,0.1-0.3,0.2c-0.4-0.3-0.7-0.6-1.1-0.9
	c0,0.4,0,0.8-0.1,1.3c-0.1,0-0.2,0-0.3,0c0-0.5,0-1,0.1-1.4c-0.1,0-0.2,0-0.3,0c0,0.5,0,1-0.1,1.5c-0.1,0-0.2,0-0.3,0
	c0-0.4,0-0.8,0.1-1.3c-0.4,0.3-0.8,0.6-1.3,0.9c-0.1-0.1-0.2-0.1-0.3-0.2c0.5-0.3,1-0.7,1.5-1c-0.1-0.1-0.2-0.1-0.3-0.2
	c-0.5,0.3-1,0.7-1.5,1c-0.1-0.1-0.2-0.1-0.2-0.2c0.4-0.3,0.9-0.6,1.3-0.9c-0.6,0-1.2,0-1.8,0c0-0.1,0-0.2,0-0.3c0.7,0,1.4,0,2.1,0
	c0-0.1,0-0.2,0-0.3c-0.7,0-1.4,0-2.1,0c0-0.1,0-0.2,0-0.3C72.6,31.3,73.2,31.4,73.8,31.4C73.8,31.4,73.8,31.4,73.8,31.4 M75.7,31.8
	c0-0.3-0.3-0.5-0.6-0.5c-0.4,0-0.7,0.2-0.7,0.5c0,0.3,0.3,0.5,0.7,0.5C75.4,32.3,75.7,32.1,75.7,31.8"/>
<path class="st0" d="M75.6,31.8c0,0.2-0.2,0.4-0.5,0.4c-0.3,0-0.5-0.2-0.5-0.4c0-0.2,0.2-0.4,0.5-0.4C75.4,31.4,75.6,31.6,75.6,31.8
	"/>
<path class="st0" d="M43.5,30.6c0.6,1.1,0.9,1.6,1.1,2c0.2-0.5,0.5-1,1.1-2l1.1-1.9c0.2-0.4,0.6-0.7,1.2-0.7c0.5,0,1,0.3,1.2,0.9
	l1.7,6h-2.1l-0.6-2.4c-0.2-0.8-0.4-1.3-0.5-1.9c-0.2,0.5-0.5,1-1,1.9l-0.9,1.7c-0.4,0.7-0.7,0.8-1.2,0.8c-0.5,0-0.9-0.1-1.2-0.8
	l-0.9-1.7c-0.5-0.9-0.7-1.4-1-1.9c-0.1,0.5-0.3,1.1-0.5,1.9l-0.6,2.4h-2.1l1.8-6c0.2-0.6,0.7-0.9,1.2-0.9c0.5,0,0.9,0.3,1.2,0.7
	L43.5,30.6z"/>
<path class="st1" d="M49.2,30.6c-1.6-1.4-3.3-2.1-5-2c-2.6,0.1-4,1.9-4.7,3.2c-0.7,1.3-0.8,2.4-0.8,2.4l0,0l0.6,0l0,0
	c0.3-2.5,1.8-4,4.1-4.1c2.3-0.1,4.2,1.3,4.3,1.3l0,0L49.2,30.6L49.2,30.6z M47.8,31.3c-0.2-0.1-2-1.4-4.3-1.3
	c-2.4,0.1-3.9,1.7-4.2,4.2l-0.4,0c0-0.2,0.2-1.2,0.8-2.4c0.7-1.3,2.1-3.1,4.6-3.2c1.7-0.1,3.4,0.6,4.9,2L47.8,31.3z"/>
<path class="st1" d="M49.3,30.6c-1.6-1.4-3.3-2.1-5-2c-2.7,0.1-4.1,2.1-4.7,3.3c-0.7,1.3-0.8,2.4-0.8,2.5l0,0.1l0.6,0l0,0
	c0.3-2.5,1.8-4,4.1-4.1c0.1,0,0.2,0,0.3,0c2.2,0,4,1.3,4,1.3l0,0L49.3,30.6L49.3,30.6z M39.3,33.9c0.4-2.4,1.9-3.8,4.1-3.9
	c0.1,0,0.2,0,0.3,0c2.1,0,3.8,1.2,4,1.3l0,0l0,0c-0.1,0-1.8-1.3-4-1.3c-0.1,0-0.2,0-0.3,0C41.2,30.2,39.8,31.5,39.3,33.9 M49.2,30.6
	L49.2,30.6L49.2,30.6c-1.5-1.3-3.2-2-4.7-2c-0.1,0-0.1,0-0.2,0c-2.7,0.1-4.1,2.1-4.7,3.2c-0.5,1-0.7,2-0.8,2.3
	c0-0.3,0.2-1.3,0.8-2.3c0.6-1.2,2-3.1,4.7-3.2c0.1,0,0.1,0,0.2,0C46.1,28.6,47.7,29.3,49.2,30.6 M38.9,34.2c0-0.3,0.2-1.3,0.8-2.3
	c0.6-1.1,2-3.1,4.6-3.2c0.1,0,0.1,0,0.2,0c1.5,0,3.1,0.7,4.6,1.9l-1.3,0.7c-0.3-0.2-1.9-1.3-4-1.3c-0.1,0-0.2,0-0.3,0
	c-1.2,0.1-2.2,0.5-2.9,1.2c-0.7,0.7-1.2,1.7-1.3,3L38.9,34.2z"/>
<path class="st1" d="M49.1,30.6l-1.3,0.7c-0.3-0.2-1.9-1.3-4-1.3c-0.1,0-0.2,0-0.3,0c-1.2,0.1-2.2,0.5-2.9,1.2
	c-0.7,0.7-1.2,1.7-1.3,3l-0.4,0c0-0.3,0.2-1.3,0.8-2.3c0.6-1.1,2-3.1,4.6-3.2c0.1,0,0.1,0,0.2,0C46,28.7,47.6,29.3,49.1,30.6"/>
<path class="st1" d="M48.3,29.4c0,0,0.3-0.1,0.2,0.3l-3.9,4.1c0,0-0.8,0-0.4-0.6L48.3,29.4z"/>
<path class="st0" d="M44.6,33.8c-0.1,0-0.4,0-0.5-0.2c-0.1-0.1,0-0.3,0.1-0.5l0,0l4.1-3.7l0,0c0,0,0,0,0.1,0c0,0,0.1,0,0.1,0
	c0,0.1,0.1,0.1,0,0.3l0,0l0,0L44.6,33.8L44.6,33.8C44.7,33.8,44.6,33.8,44.6,33.8 M44.3,33.2c-0.1,0.2-0.1,0.3-0.1,0.4
	c0.1,0.2,0.4,0.2,0.4,0.2c0,0,0,0,0,0l3.8-4.1c0-0.1,0-0.2,0-0.2c0,0,0,0-0.1,0c0,0-0.1,0-0.1,0L44.3,33.2z"/>
<g>
</g>
<g>
	<path class="st1" d="M38.9,37.6c0.1,0,0.2,0.1,0.3,0.1c0.2,0,0.3-0.1,0.3-0.2c0-0.1-0.1-0.2-0.2-0.2c-0.2-0.1-0.3-0.2-0.3-0.3
		c0-0.2,0.2-0.3,0.4-0.3c0.1,0,0.2,0,0.3,0.1l0,0.1c0,0-0.1-0.1-0.2-0.1c-0.2,0-0.2,0.1-0.2,0.2c0,0.1,0.1,0.2,0.2,0.2
		c0.2,0.1,0.3,0.2,0.3,0.4c0,0.2-0.1,0.4-0.4,0.4c-0.1,0-0.2,0-0.3-0.1L38.9,37.6z"/>
	<path class="st1" d="M39.8,36.6h0.2v0.5h0c0,0,0.1-0.1,0.1-0.1c0,0,0.1,0,0.2,0c0.1,0,0.3,0.1,0.3,0.4v0.5h-0.2v-0.5
		c0-0.1-0.1-0.3-0.2-0.3c-0.1,0-0.2,0.1-0.2,0.2c0,0,0,0,0,0.1v0.5h-0.2V36.6z"/>
	<path class="st1" d="M41,36.7c0,0.1,0,0.1-0.1,0.1c-0.1,0-0.1,0-0.1-0.1C40.8,36.7,40.8,36.6,41,36.7C40.9,36.6,41,36.7,41,36.7z
		 M40.8,37.8V37h0.2v0.9H40.8z"/>
	<path class="st1" d="M41.2,37.8v-0.8h-0.1V37h0.1v0c0-0.1,0-0.2,0.1-0.3c0.1-0.1,0.1-0.1,0.2-0.1c0.1,0,0.1,0,0.1,0l0,0.1
		c0,0-0.1,0-0.1,0c-0.1,0-0.2,0.1-0.2,0.3v0h0.2v0.1h-0.2v0.8H41.2z"/>
	<path class="st1" d="M41.9,36.7V37h0.2v0.1h-0.2v0.5c0,0.1,0,0.2,0.1,0.2c0,0,0.1,0,0.1,0l0,0.1c0,0-0.1,0-0.1,0
		c-0.1,0-0.1,0-0.2-0.1c0,0-0.1-0.1-0.1-0.2v-0.5h-0.1V37h0.1v-0.2L41.9,36.7z"/>
	<path class="st1" d="M42.9,36.7c0,0.1,0,0.1-0.1,0.1c-0.1,0-0.1,0-0.1-0.1C42.7,36.7,42.8,36.6,42.9,36.7
		C42.9,36.6,42.9,36.7,42.9,36.7z M42.7,37.8V37h0.2v0.9H42.7z"/>
	<path class="st1" d="M43.2,37.2c0-0.1,0-0.2,0-0.2h0.1l0,0.1h0c0-0.1,0.1-0.2,0.3-0.2c0.1,0,0.3,0.1,0.3,0.4v0.5h-0.2v-0.5
		c0-0.1-0.1-0.3-0.2-0.3c-0.1,0-0.2,0.1-0.2,0.2c0,0,0,0,0,0.1v0.5h-0.2V37.2z"/>
	<path class="st1" d="M44.4,36.7V37h0.2v0.1h-0.2v0.5c0,0.1,0,0.2,0.1,0.2c0,0,0.1,0,0.1,0l0,0.1c0,0-0.1,0-0.1,0
		c-0.1,0-0.1,0-0.2-0.1c0,0-0.1-0.1-0.1-0.2v-0.5h-0.1V37h0.1v-0.2L44.4,36.7z"/>
	<path class="st1" d="M45.6,37.4c0,0.3-0.2,0.5-0.4,0.5c-0.2,0-0.4-0.2-0.4-0.5c0-0.3,0.2-0.5,0.4-0.5
		C45.4,36.9,45.6,37.1,45.6,37.4z M44.9,37.4c0,0.2,0.1,0.3,0.3,0.3c0.2,0,0.3-0.1,0.3-0.3c0-0.1-0.1-0.3-0.3-0.3
		C44.9,37.1,44.9,37.2,44.9,37.4z"/>
	<path class="st1" d="M47.2,38c-0.2,0-0.3-0.1-0.5-0.1c0,0-0.1,0-0.1,0c-0.3,0-0.5-0.2-0.5-0.6c0-0.4,0.2-0.6,0.6-0.6
		c0.3,0,0.5,0.3,0.5,0.6c0,0.3-0.1,0.5-0.3,0.6v0c0.1,0,0.3,0.1,0.4,0.1L47.2,38z M47,37.2c0-0.2-0.1-0.5-0.4-0.5
		c-0.3,0-0.4,0.2-0.4,0.5c0,0.3,0.1,0.5,0.4,0.5C46.9,37.7,47,37.5,47,37.2z"/>
	<path class="st1" d="M48.1,37.6c0,0.1,0,0.2,0,0.2H48l0-0.1h0c0,0.1-0.1,0.2-0.3,0.2c-0.1,0-0.3-0.1-0.3-0.4V37h0.2v0.5
		c0,0.2,0.1,0.3,0.2,0.3c0.1,0,0.2-0.1,0.2-0.1c0,0,0-0.1,0-0.1V37h0.2V37.6z"/>
	<path class="st1" d="M48.9,37.8l0-0.1h0c0,0.1-0.1,0.1-0.3,0.1c-0.2,0-0.3-0.1-0.3-0.3c0-0.2,0.2-0.3,0.5-0.3v0
		c0-0.1,0-0.2-0.2-0.2c-0.1,0-0.2,0-0.2,0.1l0-0.1c0.1,0,0.2-0.1,0.3-0.1c0.3,0,0.3,0.2,0.3,0.4v0.3c0,0.1,0,0.2,0,0.2H48.9z
		 M48.9,37.4c-0.2,0-0.4,0-0.4,0.2c0,0.1,0.1,0.2,0.2,0.2c0.1,0,0.2-0.1,0.2-0.1c0,0,0,0,0-0.1V37.4z"/>
	<path class="st1" d="M49.3,36.6h0.2v1.3h-0.2V36.6z"/>
	<path class="st1" d="M49.9,36.7c0,0.1,0,0.1-0.1,0.1c-0.1,0-0.1,0-0.1-0.1C49.7,36.7,49.7,36.6,49.9,36.7
		C49.8,36.6,49.9,36.7,49.9,36.7z M49.7,37.8V37h0.2v0.9H49.7z"/>
	<path class="st1" d="M50.3,36.7V37h0.2v0.1h-0.2v0.5c0,0.1,0,0.2,0.1,0.2c0,0,0.1,0,0.1,0l0,0.1c0,0-0.1,0-0.1,0
		c-0.1,0-0.1,0-0.2-0.1c0,0-0.1-0.1-0.1-0.2v-0.5H50V37h0.1v-0.2L50.3,36.7z"/>
	<path class="st1" d="M50.8,37l0.2,0.5c0,0.1,0,0.1,0.1,0.2h0c0-0.1,0-0.1,0.1-0.2l0.2-0.5h0.2l-0.2,0.6c-0.1,0.3-0.2,0.5-0.3,0.5
		c-0.1,0.1-0.2,0.1-0.2,0.1l0-0.1c0,0,0.1,0,0.1-0.1c0,0,0.1-0.1,0.1-0.2c0,0,0,0,0,0s0,0,0,0L50.6,37H50.8z"/>
	<path class="st1" d="M51.6,37.1c0-0.1,0-0.1,0.1-0.1c0.1,0,0.1,0,0.1,0.1c0,0.1,0,0.1-0.1,0.1C51.7,37.2,51.6,37.2,51.6,37.1z
		 M51.6,37.7c0-0.1,0-0.1,0.1-0.1c0.1,0,0.1,0,0.1,0.1c0,0.1,0,0.1-0.1,0.1C51.7,37.9,51.6,37.8,51.6,37.7z"/>
	<path class="st1" d="M52.6,37.8v-0.5l-0.4-0.7h0.2l0.2,0.3c0,0.1,0.1,0.2,0.1,0.3h0c0-0.1,0.1-0.2,0.1-0.3l0.2-0.3h0.2l-0.4,0.7
		v0.5H52.6z"/>
	<path class="st1" d="M54,37.4c0,0.3-0.2,0.5-0.4,0.5c-0.2,0-0.4-0.2-0.4-0.5c0-0.3,0.2-0.5,0.4-0.5C53.8,36.9,54,37.1,54,37.4z
		 M53.3,37.4c0,0.2,0.1,0.3,0.3,0.3c0.2,0,0.3-0.1,0.3-0.3c0-0.1-0.1-0.3-0.3-0.3C53.4,37.1,53.3,37.2,53.3,37.4z"/>
	<path class="st1" d="M54.9,37.6c0,0.1,0,0.2,0,0.2h-0.1l0-0.1h0c0,0.1-0.1,0.2-0.3,0.2c-0.1,0-0.3-0.1-0.3-0.4V37h0.2v0.5
		c0,0.2,0.1,0.3,0.2,0.3c0.1,0,0.2-0.1,0.2-0.1c0,0,0-0.1,0-0.1V37h0.2V37.6z"/>
	<path class="st1" d="M55.2,37.2c0-0.1,0-0.2,0-0.3h0.1l0,0.2h0c0-0.1,0.1-0.2,0.2-0.2c0,0,0,0,0,0v0.2c0,0,0,0-0.1,0
		c-0.1,0-0.2,0.1-0.2,0.2c0,0,0,0,0,0.1v0.5h-0.2V37.2z"/>
	<path class="st1" d="M57,37.8c-0.1,0-0.2,0.1-0.3,0.1c-0.3,0-0.6-0.2-0.6-0.6c0-0.4,0.3-0.6,0.6-0.6c0.2,0,0.2,0,0.3,0.1l0,0.1
		c-0.1,0-0.1-0.1-0.2-0.1c-0.3,0-0.5,0.2-0.5,0.5c0,0.3,0.2,0.5,0.5,0.5c0.1,0,0.2,0,0.3-0.1L57,37.8z"/>
	<path class="st1" d="M57.7,37.8l0-0.1h0c0,0.1-0.1,0.1-0.3,0.1c-0.2,0-0.3-0.1-0.3-0.3c0-0.2,0.2-0.3,0.5-0.3v0
		c0-0.1,0-0.2-0.2-0.2c-0.1,0-0.2,0-0.2,0.1l0-0.1c0.1,0,0.2-0.1,0.3-0.1c0.3,0,0.3,0.2,0.3,0.4v0.3c0,0.1,0,0.2,0,0.2H57.7z
		 M57.7,37.4c-0.2,0-0.4,0-0.4,0.2c0,0.1,0.1,0.2,0.2,0.2c0.1,0,0.2-0.1,0.2-0.1c0,0,0,0,0-0.1V37.4z"/>
	<path class="st1" d="M58.1,37.2c0-0.1,0-0.2,0-0.3h0.1l0,0.2h0c0-0.1,0.1-0.2,0.2-0.2c0,0,0,0,0,0v0.2c0,0,0,0-0.1,0
		c-0.1,0-0.2,0.1-0.2,0.2c0,0,0,0,0,0.1v0.5h-0.2V37.2z"/>
	<path class="st1" d="M59.1,36.6c0.1,0,0.2,0,0.3,0c0.2,0,0.4,0.1,0.5,0.2c0.1,0.1,0.2,0.2,0.2,0.4c0,0.2-0.1,0.4-0.2,0.5
		c-0.1,0.1-0.3,0.2-0.5,0.2c-0.1,0-0.2,0-0.3,0V36.6z M59.2,37.7c0,0,0.1,0,0.2,0c0.3,0,0.5-0.2,0.5-0.5c0-0.3-0.2-0.5-0.5-0.5
		c-0.1,0-0.1,0-0.2,0V37.7z"/>
	<path class="st1" d="M60.4,37.4c0,0.2,0.1,0.3,0.3,0.3c0.1,0,0.2,0,0.2,0l0,0.1c-0.1,0-0.2,0.1-0.3,0.1c-0.3,0-0.4-0.2-0.4-0.4
		c0-0.3,0.2-0.5,0.4-0.5c0.3,0,0.4,0.3,0.4,0.4c0,0,0,0.1,0,0.1H60.4z M60.8,37.3c0-0.1,0-0.3-0.2-0.3c-0.2,0-0.2,0.1-0.2,0.3H60.8z
		"/>
	<path class="st1" d="M61.2,37.7c0,0,0.1,0.1,0.2,0.1c0.1,0,0.2-0.1,0.2-0.1c0-0.1,0-0.1-0.2-0.2c-0.2-0.1-0.2-0.1-0.2-0.2
		c0-0.1,0.1-0.3,0.3-0.3c0.1,0,0.2,0,0.2,0.1l0,0.1c0,0-0.1-0.1-0.2-0.1c-0.1,0-0.1,0.1-0.1,0.1c0,0.1,0.1,0.1,0.2,0.1
		c0.2,0.1,0.2,0.1,0.2,0.3c0,0.2-0.1,0.3-0.3,0.3c-0.1,0-0.2,0-0.2-0.1L61.2,37.7z"/>
	<path class="st1" d="M62,37.4c0,0.2,0.1,0.3,0.3,0.3c0.1,0,0.2,0,0.2,0l0,0.1c-0.1,0-0.2,0.1-0.3,0.1c-0.3,0-0.4-0.2-0.4-0.4
		c0-0.3,0.2-0.5,0.4-0.5c0.3,0,0.4,0.3,0.4,0.4c0,0,0,0.1,0,0.1H62z M62.5,37.3c0-0.1,0-0.3-0.2-0.3c-0.2,0-0.2,0.1-0.2,0.3H62.5z"
		/>
	<path class="st1" d="M62.8,37.2c0-0.1,0-0.2,0-0.3h0.1l0,0.2h0c0-0.1,0.1-0.2,0.2-0.2c0,0,0,0,0,0v0.2c0,0,0,0-0.1,0
		c-0.1,0-0.2,0.1-0.2,0.2c0,0,0,0,0,0.1v0.5h-0.2V37.2z"/>
	<path class="st1" d="M63.5,37l0.2,0.5c0,0.1,0.1,0.2,0.1,0.2h0c0-0.1,0-0.1,0.1-0.2L64,37h0.2l-0.3,0.9h-0.2L63.3,37H63.5z"/>
	<path class="st1" d="M64.4,37.4c0,0.2,0.1,0.3,0.3,0.3c0.1,0,0.2,0,0.2,0l0,0.1c-0.1,0-0.2,0.1-0.3,0.1c-0.3,0-0.4-0.2-0.4-0.4
		c0-0.3,0.2-0.5,0.4-0.5c0.3,0,0.4,0.3,0.4,0.4c0,0,0,0.1,0,0.1H64.4z M64.9,37.3c0-0.1,0-0.3-0.2-0.3c-0.2,0-0.2,0.1-0.2,0.3H64.9z
		"/>
	<path class="st1" d="M65.2,37.7c0,0,0.1,0.1,0.2,0.1c0.1,0,0.2-0.1,0.2-0.1c0-0.1,0-0.1-0.2-0.2c-0.2-0.1-0.2-0.1-0.2-0.2
		c0-0.1,0.1-0.3,0.3-0.3c0.1,0,0.2,0,0.2,0.1l0,0.1c0,0-0.1-0.1-0.2-0.1c-0.1,0-0.1,0.1-0.1,0.1c0,0.1,0.1,0.1,0.2,0.1
		c0.2,0.1,0.2,0.1,0.2,0.3c0,0.2-0.1,0.3-0.3,0.3c-0.1,0-0.2,0-0.2-0.1L65.2,37.7z"/>
	<path class="st1" d="M66.5,36.7V37h0.2v0.1h-0.2v0.5c0,0.1,0,0.2,0.1,0.2c0,0,0.1,0,0.1,0l0,0.1c0,0-0.1,0-0.1,0
		c-0.1,0-0.1,0-0.2-0.1c0,0-0.1-0.1-0.1-0.2v-0.5h-0.1V37h0.1v-0.2L66.5,36.7z"/>
	<path class="st1" d="M66.9,36.6h0.2v0.5h0c0,0,0.1-0.1,0.1-0.1c0,0,0.1,0,0.2,0c0.1,0,0.3,0.1,0.3,0.4v0.5h-0.2v-0.5
		c0-0.1-0.1-0.3-0.2-0.3c-0.1,0-0.2,0.1-0.2,0.2c0,0,0,0,0,0.1v0.5h-0.2V36.6z"/>
	<path class="st1" d="M68,37.4c0,0.2,0.1,0.3,0.3,0.3c0.1,0,0.2,0,0.2,0l0,0.1c-0.1,0-0.2,0.1-0.3,0.1c-0.3,0-0.4-0.2-0.4-0.4
		c0-0.3,0.2-0.5,0.4-0.5c0.3,0,0.4,0.3,0.4,0.4c0,0,0,0.1,0,0.1H68z M68.5,37.3c0-0.1,0-0.3-0.2-0.3c-0.2,0-0.2,0.1-0.2,0.3H68.5z"
		/>
	<path class="st1" d="M69.2,36.6c0.1,0,0.2,0,0.3,0c0.2,0,0.3,0,0.3,0.1c0.1,0,0.1,0.1,0.1,0.2c0,0.1-0.1,0.2-0.2,0.3v0
		c0.1,0,0.3,0.1,0.3,0.3c0,0.1,0,0.2-0.1,0.2c-0.1,0.1-0.2,0.1-0.4,0.1c-0.1,0-0.2,0-0.2,0V36.6z M69.4,37.1h0.1
		c0.2,0,0.3-0.1,0.3-0.2c0-0.1-0.1-0.2-0.3-0.2c-0.1,0-0.1,0-0.1,0V37.1z M69.4,37.7c0,0,0.1,0,0.1,0c0.2,0,0.3-0.1,0.3-0.2
		c0-0.2-0.1-0.2-0.3-0.2h-0.1V37.7z"/>
	<path class="st1" d="M70.3,37.4c0,0.2,0.1,0.3,0.3,0.3c0.1,0,0.2,0,0.2,0l0,0.1c-0.1,0-0.2,0.1-0.3,0.1c-0.3,0-0.4-0.2-0.4-0.4
		c0-0.3,0.2-0.5,0.4-0.5c0.3,0,0.4,0.3,0.4,0.4c0,0,0,0.1,0,0.1H70.3z M70.8,37.3c0-0.1,0-0.3-0.2-0.3c-0.2,0-0.2,0.1-0.2,0.3H70.8z
		"/>
	<path class="st1" d="M71.1,37.7c0,0,0.1,0.1,0.2,0.1c0.1,0,0.2-0.1,0.2-0.1c0-0.1,0-0.1-0.2-0.2c-0.2-0.1-0.2-0.1-0.2-0.2
		c0-0.1,0.1-0.3,0.3-0.3c0.1,0,0.2,0,0.2,0.1l0,0.1c0,0-0.1-0.1-0.2-0.1c-0.1,0-0.1,0.1-0.1,0.1c0,0.1,0.1,0.1,0.2,0.1
		c0.2,0.1,0.2,0.1,0.2,0.3c0,0.2-0.1,0.3-0.3,0.3c-0.1,0-0.2,0-0.2-0.1L71.1,37.7z"/>
	<path class="st1" d="M72.1,36.7V37h0.2v0.1h-0.2v0.5c0,0.1,0,0.2,0.1,0.2c0,0,0.1,0,0.1,0l0,0.1c0,0-0.1,0-0.1,0
		c-0.1,0-0.1,0-0.2-0.1c0,0-0.1-0.1-0.1-0.2v-0.5h-0.1V37h0.1v-0.2L72.1,36.7z"/>
</g>
<g>
</g>
<g>
</g>
<g>
</g>
<g>
</g>
<g>
</g>
<g>
</g>
</svg>
