<svg id="Layer_1" data-name="Layer 1" xmlns="http://www.w3.org/2000/svg" viewBox="0 0 223.65 146"><defs><style>.cls-1{fill:#fff;}</style></defs><path class="cls-1" d="M53,147.33H46.22l-3-20.21-9.24,20.15H32.29L23,127.14l-3,20.19H13.17l4.84-31h6.72l8.38,19,8.4-19h6.74Z" transform="translate(-13.17 -2)"/><path class="cls-1" d="M72.61,148A17.3,17.3,0,0,1,66,146.76a16.23,16.23,0,0,1-5.26-3.38,15.5,15.5,0,0,1-3.45-5.14,16.74,16.74,0,0,1,0-12.79,15.5,15.5,0,0,1,3.45-5.14A16.23,16.23,0,0,1,66,116.93a17.49,17.49,0,0,1,6.57-1.24,17.32,17.32,0,0,1,6.53,1.23,15.68,15.68,0,0,1,5.23,3.38,16,16,0,0,1,3.42,5.14,17,17,0,0,1,0,12.81,15.84,15.84,0,0,1-3.42,5.14,15.68,15.68,0,0,1-5.23,3.38A17.32,17.32,0,0,1,72.61,148Zm-6.94-9.15a9.88,9.88,0,0,0,13.83,0,10.32,10.32,0,0,0,0-14A9.3,9.3,0,0,0,72.61,122a9.4,9.4,0,0,0-6.94,2.83,10.15,10.15,0,0,0,0,14Z" transform="translate(-13.17 -2)"/><path class="cls-1" d="M114.66,116.36v6.22H106v24.75h-6.7V122.58H90.75v-6.22Z" transform="translate(-13.17 -2)"/><path class="cls-1" d="M132.88,148a17.25,17.25,0,0,1-6.56-1.24,16.13,16.13,0,0,1-5.26-3.38,15.67,15.67,0,0,1-3.46-5.14,16.86,16.86,0,0,1,0-12.79,15.67,15.67,0,0,1,3.46-5.14,16.13,16.13,0,0,1,5.26-3.38,18,18,0,0,1,13.1,0,15.25,15.25,0,0,1,8.64,8.52,16.91,16.91,0,0,1,0,12.81,15.53,15.53,0,0,1-3.42,5.14,15.73,15.73,0,0,1-5.22,3.38A17.37,17.37,0,0,1,132.88,148ZM126,138.85a9.86,9.86,0,0,0,13.82,0,10.29,10.29,0,0,0,0-14,9.88,9.88,0,0,0-13.82,0,10.12,10.12,0,0,0,0,14Z" transform="translate(-13.17 -2)"/><path class="cls-1" d="M172.92,116.36h6.7v31h-6.7V134.52H161.26v12.81h-6.69v-31h6.69V128.3h11.66Z" transform="translate(-13.17 -2)"/><path class="cls-1" d="M207.26,147.33l-2.16-5.87H192.77l-2.12,5.87h-7.1l12.13-31H202l12.53,31Zm-8.36-22.78-4,11.08H203Z" transform="translate(-13.17 -2)"/><path class="cls-1" d="M236.83,116.36v6.22h-8.62v24.75h-6.7V122.58h-8.59v-6.22Z" transform="translate(-13.17 -2)"/><path class="cls-1" d="M125,2C82.11,2,47.34,25.35,47.34,54.17a36.85,36.85,0,0,0,3.87,16.29c.52,1.07,1.1,2.14,1.73,3.18C65.68,55,82,32.74,84.81,29.55a5.65,5.65,0,0,1,4.29-2.19c3,0,5.34,2.64,5.34,2.64,6.68,4.62,19.33,17.34,30.56,29.18l.68.72c1.83,1.94,3.62,3.84,5.34,5.68l.64.69c8.84,9.49,15.55,17,15.55,17s-1,8.13-3.67,8.13a2.39,2.39,0,0,1-1.67-1c-2.33-2.53-8.32-10.48-16.19-18.33l-.68-.68c-1.74-1.73-3.52-3.47-5.3-5.19l-.72-.69c-8.13-7.82-16.1-15-19.67-17.84-4.32-3.4-6.78-5.1-8.73-5.11-1.7,0-3,1.3-4.87,3.9S73,71.74,65.46,87.66c14.25,11.41,35.63,18.67,59.54,18.67s45.29-7.26,59.54-18.67C177,71.74,166.05,49,164.29,46.53c-4-5.58-5.49-5.16-13.61,1.21-3.31,2.61-10.47,9-18,16.24-1.76-1.88-3.55-3.79-5.33-5.67l-.77-.81c10.82-11.35,22.6-23.1,29-27.5,0,0,5.08-5.63,9.63-.45C168,32.74,184.32,55,197.06,73.64a41.4,41.4,0,0,0,2.29-4.37,36.61,36.61,0,0,0,3.31-15.1C202.66,25.35,167.89,2,125,2ZM108.13,90.47c-3.92,4.25-5.34-7.18-5.34-7.18s6.25-7,14.62-16l.68.66c1.94,1.87,3.67,3.57,5.28,5.17C116,80.63,110.37,88,108.13,90.47Z" transform="translate(-13.17 -2)"/></svg>